# xmcd
#
# Track frame offsets: 
#        150
#        14532
#        25644
#        39084
#        52360
#        65698
#        79335
#        92870
#        106207
#        119131
#        132593
#        145366
#        159471
#        172586
#        184563
#        196725
#        211653
#        226989
#        242600
#        255454
#        270171
#        284795
#        297320
#        312484
#
# Disc length: 4363 seconds
#
# Revision: 0
# Processed by: cddbd v1.5.2PL0 Copyright (c) Steve Scherf et al.
# Submitted via: ExactAudioCopyFreeDBPlugin 1.0
#
DISCID=5a110918
DTITLE=Various Artist - Carolina Gospel Quartets (1938-1939)
DYEAR=1996
DGENRE=Gospel
TTITLE0=Spartanburg Famous Four - Lily of the Valley (I Want you to Mo
TTITLE0=ve)
TTITLE1=Spartanburg Famous Four - Go Where I Send Thee
TTITLE2=Spartanburg Famous Four - I Know My Time Ain't Long
TTITLE3=Spartanburg Famous Four - Satan, Your Kingdom Must Come Down
TTITLE4=Spartanburg Famous Four - John, Don't You Write No More
TTITLE5=Spartanburg Famous Four - Can You Make It to the City
TTITLE6=Spartanburg Famous Four - Do You Call That Religion
TTITLE7=Spartanburg Famous Four - John Wrote the Revelations
TTITLE8=Spartanburg Famous Four - How Can You Talk About Other People?
TTITLE9=Spartanburg Famous Four - The Graveyard Is Waiting on Poor Me
TTITLE10=Spartanburg Famous Four - Anybody in Heaven That You Know
TTITLE11=Spartanburg Famous Four - When That First Trumpet Sounds
TTITLE12=Shelby Gospel Four - New Burying Ground
TTITLE13=Shelby Gospel Four - How About You?
TTITLE14=Shelby Gospel Four - Lord Have Mercy
TTITLE15=Shelby Gospel Four - Take Your Burden to the Lord
TTITLE16=Gospel Light Jubilee Singers - What Are They Doing in Heaven 
TTITLE16=Today?
TTITLE17=Gospel Light Jubilee Singers - I Can Tell the World About Thi
TTITLE17=s
TTITLE18=Gospel Light Jubilee Singers - You Better Run On
TTITLE19=Gospel Light Jubilee Singers - Go Where I Send Thee
TTITLE20=Gospel Light Jubilee Singers - My Good Lord Done Been Here
TTITLE21=Gospel Light Jubilee Singers - Sit Down, Child
TTITLE22=Gospel Light Jubilee Singers - I Am in His Care
TTITLE23=Gospel Light Jubilee Singers - Take My Hand and Lead Me On
EXTD=
EXTT0=
EXTT1=
EXTT2=
EXTT3=
EXTT4=
EXTT5=
EXTT6=
EXTT7=
EXTT8=
EXTT9=
EXTT10=
EXTT11=
EXTT12=
EXTT13=
EXTT14=
EXTT15=
EXTT16=
EXTT17=
EXTT18=
EXTT19=
EXTT20=
EXTT21=
EXTT22=
EXTT23=
PLAYORDER=
